<?xml version="1.0" encoding="utf-8"?>
<!-- Generator: Adobe Illustrator 19.0.0, SVG Export Plug-In . SVG Version: 6.00 Build 0)  -->
<svg version="1.1" id="Layer_1" xmlns="http://www.w3.org/2000/svg" xmlns:xlink="http://www.w3.org/1999/xlink" x="0px" y="0px"
	 viewBox="0 0 350 150" style="enable-background:new 0 0 350 150;" xml:space="preserve">
<style type="text/css">
	.st0{fill:#FFFFFF;}
	.st1{fill:#3CDBC0;}
</style>
<g id="XMLID_150_">
	<path id="XMLID_242_" class="st0" d="M89.3,15.8C53.9,15.2,25,43.8,25,79c0,23.6,13,44.3,32.2,55.1c0.5,0.3,1.1-0.4,0.7-0.9
		c-5.4-5.6-9.5-12.6-11.6-20.3c-0.5-1.7,1.3-3.1,2.9-2.3c3.5,1.9,7.5,2.9,11.8,2.9c9.7,0,18.1-5.5,22.4-13.5h0
		c5-10.6,15.8-17.8,28.3-17.8c0.5,0,1,0,1.5,0c11.8,0.5,20.8,8.6,23.8,18.8c0.4,1.3-0.5,2.2-1.1,1.3c-7.3-10.9-21.9-14.7-33.5-8.7
		c-4.6,2.4-8.2,5.9-10.6,10c-0.7,1.2,0.9,2.3,1.8,1.3c6.3-6.8,16.1-10.1,25.7-7.6c7,1.8,12.6,6.3,16,12.2c1.8,3.1,1.9,6.8,0.5,10
		l0,0.1c-0.3,0.7-0.7,1.5-1.1,2.2c0,0,0,0,0,0.1c0,0,0,0,0,0c11.2-12,17.7-28.3,16.8-46.2C149.9,42.8,122.5,16.3,89.3,15.8 M57,48.6
		c4.2,0.2,11.3-0.6,17.6-7.3c5-5.3,10.6-6.3,15.1-6c4,0.3,7.1,3.5,7.6,7.4l0.5,4.6c0.2,1.5-1.1,2.7-2.5,2.5
		c-3.7-0.4-10.5-0.6-16.8,1.9c-8.3,3.3-17.6,3.3-22-1.7C55.8,49.4,56.2,48.5,57,48.6 M134,82.7c0,1.7-1.9,2.5-3.2,1.5
		c-4.9-3.9-10.9-6.2-17.4-6.4c-0.6,0-1.1,0-1.7,0c-13.6,0-26.2,7.8-32.2,20c-0.1,0.1-0.1,0.2-0.2,0.3c-3.5,6.8-10.6,11-18.3,11
		c-1.6,0-2.7-1.5-2.3-3c1.4-5.7,2.2-11.6,2.2-17.8c0-9.6-1.9-18.8-5.3-27.2c-1.1-2.8,1.4-5.7,4.3-5c5.3,1.3,10.9,1.6,16.1-0.2
		l7.6-2.5c2-0.5,4.1-0.5,6,0.2c1,0.4,2,0.9,2.9,1.6c1.2,1,2.2,2.3,3,3.5c0,0,0,0,0,0.1l0,0c1.5,2.3,2.3,4.5,2.7,5.5
		c0.1,0.2,0.4,0.2,0.4-0.1c0-1.2-0.5-3.4-1.3-5.7c-0.4-1-0.1-2.2,0.8-2.9c0.5-0.4,1.1-0.8,1.7-1.2c2.4-1.3,5.2-1.4,7.8-0.7l4.6,1.9
		c4.5,1.9,9.5,1.8,14.1,0.3c1.7-0.6,3.6,0.4,4.1,2.1c2.4,7.2,3.7,14.8,3.7,22.8L134,82.7z M204.4,39.3c-3.3-1.4-7.6-2.2-12.8-2.2
		c-2.2,0-4.5,0.1-6.9,0.4c-2.4,0.3-4.7,0.7-7,1.2c-2.3,0.5-4.4,1.1-6.5,1.8c0,0,0,0-0.1,0c-3.3,1.1-5.4,4.3-5.4,7.7v42.1
		c0,1.9,1.5,3.5,3.5,3.5h4.7c1.9,0,3.5-1.5,3.5-3.5V49.2c1.8-0.7,3.8-1.2,5.9-1.5c2.1-0.4,4.2-0.6,6.1-0.6c2.8,0,5.1,0.3,6.8,1
		c1.7,0.7,3.1,1.6,4,2.7c0.9,1.1,1.5,2.4,1.9,3.8c0.3,1.4,0.5,2.7,0.5,4.2v31.7c0,1.9,1.5,3.5,3.5,3.5h4.7c1.9,0,3.5-1.5,3.5-3.5
		V57.2c0-4.5-0.8-8.2-2.4-11.2C210.2,43,207.7,40.8,204.4,39.3 M319.2,15.8c-3.2,0-5.8,2.6-5.8,5.8v18.7c-0.8-0.4-1.6-0.7-2.4-1
		c-2.1-0.7-4.2-1.2-6.3-1.6c-2.1-0.4-3.8-0.6-5.2-0.6c-8.7,0-15.2,2.5-19.5,7.6c-4.3,5.1-6.4,12-6.4,20.8c0,6.2,0.8,11.3,2.3,15.2
		c1.5,3.9,3.7,7,6.3,9.1c2.7,2.2,5.6,3.7,8.9,4.5c3.2,0.8,6.6,1.3,10,1.3c2.7,0,5.5-0.3,8.3-0.8c2.8-0.5,5.4-1.3,7.7-2.4
		c2.4-1.1,4.3-2.5,5.7-4.1c1.4-1.7,2.2-3.7,2.2-6V21.5C325,18.3,322.4,15.8,319.2,15.8 M313.5,81.1c0,1.3-1.2,2.4-3.5,3.2
		c-2.4,0.8-5.2,1.2-8.5,1.2c-4.2,0-7.5-0.9-9.8-2.7c-2.3-1.8-3.9-4.1-4.8-7.1c-0.9-3-1.3-6.3-1.3-10c0-4.1,0.6-7.5,1.7-10.2
		c1.1-2.8,2.8-4.9,5.1-6.3c2.3-1.4,5.3-2.2,8.9-2.2c2,0,4.1,0.3,6.2,0.8c2.1,0.5,4.2,1.3,6.1,2.4V81.1z M258.9,41
		c-3.7-2.7-8.5-4-14.5-4c-8.1,0-14.4,2.5-19,7.5c-4.5,5-6.8,12.3-6.8,22c0,6.3,1.1,11.6,3.3,15.9c2.2,4.4,5.3,7.6,9.3,9.9
		c4,2.2,8.8,3.3,14.2,3.3c4.1,0,7.7-0.4,11-1.1c2.3-0.5,4.5-1.1,6.5-1.8c1.4-0.5,2.3-1.8,2.3-3.2v-3.1c0-2.4-2.4-4.1-4.7-3.2l-0.1,0
		c-1.8,0.7-3.9,1.3-6,1.7c-2.2,0.4-4.5,0.7-7,0.7c-5.6,0-9.8-1.6-12.7-4.8c-2.5-2.8-3.9-6.8-4.2-11.9h34c2.8,0,5.1-2.4,4.9-5.2
		c-0.3-4.2-1-8-2.2-11.4C265.2,47.4,262.6,43.7,258.9,41 M230.6,60.2c0.3-2.2,0.7-4,1.2-5.6c1.1-2.9,2.6-5,4.7-6.2
		c2.1-1.2,4.6-1.8,7.5-1.8c4.6,0,7.9,1.3,10.1,3.9c1.8,2.2,2.9,5.4,3.3,9.7H230.6z"/>
	<path id="XMLID_185_" class="st1" d="M169.6,121.1c-1.1-0.6-2-1.4-2.6-2.5c-0.6-1.1-0.9-2.3-0.9-3.6c0-1.4,0.3-2.6,0.9-3.6
		c0.6-1.1,1.5-1.9,2.6-2.5c1.1-0.6,2.4-0.9,3.8-0.9c1.2,0,2.4,0.3,3.3,0.8c1,0.5,1.7,1.2,2.3,2.2l-1.9,1.2c-0.4-0.7-1-1.2-1.6-1.5
		c-0.6-0.3-1.4-0.5-2.1-0.5c-0.9,0-1.7,0.2-2.4,0.6c-0.7,0.4-1.3,1-1.7,1.7c-0.4,0.7-0.6,1.6-0.6,2.5c0,1,0.2,1.8,0.6,2.6
		c0.4,0.7,1,1.3,1.7,1.7c0.7,0.4,1.5,0.6,2.4,0.6c0.8,0,1.5-0.2,2.1-0.5c0.6-0.3,1.2-0.8,1.6-1.5l1.9,1.2c-0.5,1-1.3,1.7-2.3,2.2
		s-2.1,0.8-3.3,0.8C171.9,122,170.7,121.7,169.6,121.1"/>
	<path id="XMLID_238_" class="st1" d="M173.3,122.3c-1.4,0-2.8-0.3-3.9-0.9c-1.1-0.6-2-1.5-2.7-2.6c-0.6-1.1-1-2.4-1-3.8
		c0-1.4,0.3-2.7,1-3.8c0.6-1.1,1.6-2,2.7-2.6c1.1-0.6,2.5-0.9,3.9-0.9c1.3,0,2.5,0.3,3.5,0.8c1,0.5,1.8,1.3,2.4,2.3
		c0.1,0.1,0,0.3-0.1,0.4l-1.9,1.2c-0.1,0.1-0.3,0-0.4-0.1c-0.4-0.6-0.9-1.1-1.5-1.4c-0.6-0.3-1.3-0.5-2-0.5c-0.8,0-1.6,0.2-2.3,0.6
		c-0.7,0.4-1.2,0.9-1.6,1.6c-0.4,0.7-0.6,1.5-0.6,2.4c0,0.9,0.2,1.7,0.6,2.4c0.4,0.7,0.9,1.2,1.6,1.6c0.7,0.4,1.4,0.6,2.3,0.6
		c0.7,0,1.4-0.2,2-0.5c0.6-0.3,1.1-0.8,1.5-1.4c0.1-0.1,0.3-0.2,0.4-0.1l1.9,1.2c0.1,0.1,0.2,0.3,0.1,0.4c-0.6,1-1.4,1.8-2.4,2.3
		C175.8,122,174.6,122.3,173.3,122.3 M173.3,108.2c-1.3,0-2.6,0.3-3.6,0.9c-1,0.6-1.9,1.4-2.5,2.4c-0.6,1-0.9,2.2-0.9,3.5
		c0,1.3,0.3,2.5,0.9,3.5c0.6,1,1.4,1.8,2.5,2.4c1,0.6,2.3,0.9,3.6,0.9c1.2,0,2.3-0.2,3.2-0.7c0.8-0.4,1.5-1.1,2-1.8l-1.4-0.9
		c-0.4,0.6-1,1-1.6,1.3c-0.7,0.4-1.4,0.5-2.3,0.5c-0.9,0-1.8-0.2-2.6-0.6c-0.8-0.4-1.4-1-1.8-1.8c-0.4-0.8-0.6-1.7-0.6-2.7
		c0-1,0.2-1.9,0.6-2.7c0.4-0.8,1-1.4,1.8-1.8c0.8-0.4,1.6-0.6,2.6-0.6c0.8,0,1.6,0.2,2.3,0.5c0.6,0.3,1.1,0.8,1.6,1.3l1.4-0.9
		c-0.5-0.8-1.2-1.4-2-1.8C175.6,108.5,174.5,108.2,173.3,108.2"/>
	<path id="XMLID_235_" class="st1" d="M195.1,121.1c-1.1-0.6-1.9-1.4-2.6-2.5c-0.6-1.1-0.9-2.3-0.9-3.6s0.3-2.6,0.9-3.6
		c0.6-1.1,1.5-1.9,2.6-2.5c1.1-0.6,2.3-0.9,3.7-0.9c1.4,0,2.6,0.3,3.7,0.9c1.1,0.6,1.9,1.4,2.5,2.5c0.6,1.1,0.9,2.3,0.9,3.6
		s-0.3,2.6-0.9,3.6c-0.6,1.1-1.5,1.9-2.5,2.5c-1.1,0.6-2.3,0.9-3.7,0.9C197.4,122,196.2,121.7,195.1,121.1 M201.2,119.2
		c0.7-0.4,1.3-1,1.6-1.7c0.4-0.7,0.6-1.6,0.6-2.5c0-1-0.2-1.8-0.6-2.5c-0.4-0.7-0.9-1.3-1.6-1.7c-0.7-0.4-1.5-0.6-2.4-0.6
		c-0.9,0-1.7,0.2-2.4,0.6c-0.7,0.4-1.3,1-1.7,1.7c-0.4,0.7-0.6,1.6-0.6,2.5c0,1,0.2,1.8,0.6,2.5c0.4,0.7,1,1.3,1.7,1.7
		c0.7,0.4,1.5,0.6,2.4,0.6C199.7,119.8,200.5,119.6,201.2,119.2"/>
	<path id="XMLID_230_" class="st1" d="M198.8,122.3c-1.4,0-2.7-0.3-3.8-0.9c-1.1-0.6-2-1.5-2.7-2.6c-0.6-1.1-1-2.4-1-3.8
		c0-1.4,0.3-2.7,1-3.8c0.6-1.1,1.5-2,2.7-2.6c1.1-0.6,2.4-0.9,3.8-0.9c1.4,0,2.7,0.3,3.8,0.9c1.1,0.6,2,1.5,2.7,2.6
		c0.6,1.1,1,2.4,1,3.8c0,1.4-0.3,2.7-1,3.8c-0.6,1.1-1.5,2-2.7,2.6C201.5,121.9,200.2,122.3,198.8,122.3 M198.8,108.2
		c-1.3,0-2.5,0.3-3.5,0.9c-1,0.6-1.9,1.4-2.4,2.4c-0.6,1-0.9,2.2-0.9,3.5c0,1.3,0.3,2.5,0.9,3.5c0.6,1,1.4,1.8,2.4,2.4
		c1,0.6,2.2,0.9,3.5,0.9c1.3,0,2.5-0.3,3.5-0.9c1-0.6,1.8-1.4,2.4-2.4c0.6-1,0.9-2.2,0.9-3.5c0-1.3-0.3-2.5-0.9-3.5
		c-0.6-1-1.4-1.8-2.4-2.4C201.3,108.5,200.1,108.2,198.8,108.2 M198.8,120.1c-0.9,0-1.8-0.2-2.5-0.7c-0.7-0.4-1.3-1-1.8-1.8
		c-0.4-0.8-0.6-1.7-0.6-2.7s0.2-1.9,0.6-2.7c0.4-0.8,1-1.4,1.8-1.8c0.7-0.4,1.6-0.6,2.5-0.6c0.9,0,1.8,0.2,2.5,0.6
		c0.7,0.4,1.3,1,1.8,1.8c0.4,0.8,0.6,1.7,0.6,2.7c0,1-0.2,1.9-0.6,2.7c-0.4,0.8-1,1.4-1.8,1.8C200.6,119.9,199.7,120.1,198.8,120.1
		 M198.8,110.4c-0.8,0-1.6,0.2-2.2,0.6c-0.6,0.4-1.2,0.9-1.5,1.6c-0.4,0.7-0.6,1.5-0.6,2.4c0,0.9,0.2,1.7,0.6,2.4
		c0.4,0.7,0.9,1.2,1.6,1.6c0.6,0.4,1.4,0.6,2.2,0.6c0.8,0,1.6-0.2,2.2-0.6c0.6-0.4,1.2-0.9,1.5-1.6c0.4-0.7,0.6-1.5,0.6-2.4
		c0-0.9-0.2-1.7-0.6-2.4c-0.4-0.7-0.9-1.2-1.5-1.6C200.4,110.6,199.6,110.4,198.8,110.4"/>
	<rect id="XMLID_176_" x="220.3" y="101.3" class="st1" width="2.5" height="20.5"/>
	<path id="XMLID_226_" class="st1" d="M222.8,122.1h-2.5c-0.2,0-0.3-0.1-0.3-0.3v-20.5c0-0.2,0.1-0.3,0.3-0.3h2.5
		c0.2,0,0.3,0.1,0.3,0.3v20.5C223.1,122,222.9,122.1,222.8,122.1 M220.6,121.5h1.9v-19.9h-1.9V121.5z"/>
	<rect id="XMLID_173_" x="238.4" y="101.3" class="st1" width="2.5" height="20.5"/>
	<path id="XMLID_222_" class="st1" d="M240.9,122.1h-2.5c-0.2,0-0.3-0.1-0.3-0.3v-20.5c0-0.2,0.1-0.3,0.3-0.3h2.5
		c0.2,0,0.3,0.1,0.3,0.3v20.5C241.2,122,241.1,122.1,240.9,122.1 M238.7,121.5h1.9v-19.9h-1.9V121.5z"/>
	<path id="XMLID_219_" class="st1" d="M269,115.8h-11.2c0.2,1.2,0.7,2.2,1.6,2.9c0.9,0.7,2,1.1,3.4,1.1c1.6,0,3-0.6,4-1.7l1.4,1.6
		c-0.6,0.7-1.4,1.3-2.3,1.7c-0.9,0.4-2,0.6-3.1,0.6c-1.5,0-2.7-0.3-3.9-0.9c-1.1-0.6-2-1.4-2.6-2.5c-0.6-1.1-0.9-2.3-0.9-3.6
		c0-1.3,0.3-2.5,0.9-3.6c0.6-1.1,1.4-1.9,2.5-2.5c1-0.6,2.2-0.9,3.5-0.9c1.3,0,2.5,0.3,3.5,0.9c1,0.6,1.8,1.4,2.4,2.5
		c0.6,1.1,0.9,2.3,0.9,3.7C269,115.2,269,115.4,269,115.8 M259.2,111.1c-0.8,0.7-1.3,1.7-1.4,2.9h8.8c-0.1-1.2-0.6-2.1-1.4-2.8
		c-0.8-0.7-1.8-1.1-3-1.1C261,110,260,110.4,259.2,111.1"/>
	<path id="XMLID_213_" class="st1" d="M262.7,122.3c-1.5,0-2.8-0.3-4-0.9c-1.2-0.6-2.1-1.5-2.7-2.6c-0.6-1.1-1-2.4-1-3.8
		c0-1.4,0.3-2.6,0.9-3.8c0.6-1.1,1.5-2,2.6-2.6c1.1-0.6,2.3-0.9,3.7-0.9c1.4,0,2.6,0.3,3.7,0.9c1.1,0.6,1.9,1.5,2.5,2.6
		c0.6,1.1,0.9,2.4,0.9,3.8c0,0.2,0,0.5-0.1,0.8c0,0.2-0.1,0.3-0.3,0.3h-10.8c0.2,1,0.7,1.8,1.4,2.4c0.9,0.7,1.9,1,3.2,1
		c1.6,0,2.8-0.5,3.8-1.6c0.1-0.1,0.1-0.1,0.2-0.1c0.1,0,0.2,0,0.2,0.1l1.4,1.6c0.1,0.1,0.1,0.3,0,0.4c-0.7,0.8-1.5,1.3-2.4,1.7
		C265,122.1,263.9,122.3,262.7,122.3 M262.2,108.2c-1.3,0-2.4,0.3-3.4,0.9c-1,0.6-1.8,1.4-2.4,2.4c-0.6,1-0.9,2.2-0.9,3.5
		c0,1.3,0.3,2.5,0.9,3.5c0.6,1,1.4,1.8,2.5,2.4c1.1,0.6,2.3,0.9,3.7,0.9c1.1,0,2.1-0.2,3-0.5c0.8-0.3,1.5-0.8,2-1.4l-1-1.2
		c-1,1-2.4,1.5-4,1.5c-1.4,0-2.6-0.4-3.6-1.2c-1-0.8-1.5-1.8-1.7-3.1c0-0.1,0-0.2,0.1-0.2c0.1-0.1,0.1-0.1,0.2-0.1h10.9
		c0-0.2,0-0.3,0-0.5c0-1.3-0.3-2.5-0.8-3.5c-0.6-1-1.3-1.8-2.3-2.4C264.6,108.5,263.5,108.2,262.2,108.2 M266.7,114.3h-8.8
		c-0.1,0-0.2,0-0.2-0.1c-0.1-0.1-0.1-0.1-0.1-0.2c0.1-1.2,0.7-2.3,1.5-3c0.9-0.8,1.9-1.2,3.2-1.2c1.3,0,2.3,0.4,3.2,1.2
		c0.9,0.8,1.4,1.8,1.5,3c0,0.1,0,0.2-0.1,0.2C266.8,114.2,266.7,114.3,266.7,114.3 M258.2,113.7h8.1c-0.2-0.9-0.6-1.7-1.3-2.3
		c-0.8-0.7-1.7-1-2.8-1c-1.1,0-2.1,0.3-2.8,1C258.8,111.9,258.4,112.7,258.2,113.7 M259.2,111.1L259.2,111.1L259.2,111.1z"/>
	<path id="XMLID_210_" class="st1" d="M296.6,108v11.9c0,2.4-0.6,4.2-1.8,5.3c-1.2,1.2-3,1.7-5.4,1.7c-1.3,0-2.5-0.2-3.7-0.5
		c-1.2-0.4-2.1-0.9-2.9-1.5l1.2-1.9c0.6,0.6,1.4,1,2.4,1.3c0.9,0.3,1.9,0.5,2.9,0.5c1.6,0,2.8-0.4,3.6-1.1c0.8-0.8,1.2-1.9,1.2-3.5
		v-1.1c-0.6,0.7-1.3,1.2-2.2,1.6c-0.9,0.4-1.8,0.5-2.8,0.5c-1.3,0-2.5-0.3-3.6-0.8c-1.1-0.6-1.9-1.4-2.5-2.4c-0.6-1-0.9-2.2-0.9-3.5
		c0-1.3,0.3-2.5,0.9-3.5c0.6-1,1.4-1.8,2.5-2.4c1.1-0.6,2.3-0.8,3.6-0.8c1,0,2,0.2,2.9,0.6c0.9,0.4,1.6,0.9,2.2,1.7V108H296.6z
		 M291.8,118.5c0.7-0.4,1.3-0.9,1.7-1.6c0.4-0.7,0.6-1.5,0.6-2.3c0-1.3-0.4-2.4-1.3-3.2c-0.9-0.8-2-1.2-3.4-1.2
		c-1.4,0-2.5,0.4-3.4,1.2c-0.9,0.8-1.3,1.9-1.3,3.2c0,0.9,0.2,1.6,0.6,2.3c0.4,0.7,1,1.2,1.7,1.6c0.7,0.4,1.5,0.6,2.5,0.6
		C290.3,119.1,291.1,118.9,291.8,118.5"/>
	<path id="XMLID_205_" class="st1" d="M289.4,127.3c-1.3,0-2.6-0.2-3.8-0.5c-1.2-0.4-2.2-0.9-3-1.6c-0.1-0.1-0.1-0.3-0.1-0.4
		l1.2-1.9c0-0.1,0.1-0.1,0.2-0.1c0.1,0,0.2,0,0.2,0.1c0.6,0.5,1.4,0.9,2.3,1.3c0.9,0.3,1.9,0.5,2.8,0.5c1.5,0,2.7-0.4,3.4-1.1
		c0.7-0.7,1.1-1.8,1.1-3.3v-0.3c-0.5,0.5-1.1,0.8-1.8,1.1c-0.9,0.4-1.9,0.6-2.9,0.6c-1.4,0-2.6-0.3-3.7-0.9c-1.1-0.6-2-1.4-2.6-2.5
		s-1-2.3-1-3.6c0-1.3,0.3-2.6,1-3.6c0.6-1.1,1.5-1.9,2.6-2.5c1.1-0.6,2.4-0.9,3.7-0.9c1.1,0,2.1,0.2,3,0.6c0.7,0.3,1.3,0.7,1.8,1.2
		V108c0-0.2,0.1-0.3,0.3-0.3h2.4c0.2,0,0.3,0.1,0.3,0.3v11.9c0,2.5-0.6,4.3-1.9,5.6C293.8,126.7,291.9,127.3,289.4,127.3
		 M283.3,124.9c0.7,0.5,1.5,1,2.6,1.3c1.1,0.3,2.4,0.5,3.6,0.5c2.3,0,4-0.6,5.1-1.6c1.1-1.1,1.7-2.8,1.7-5.1v-11.6h-1.8v1.8
		c0,0.1-0.1,0.2-0.2,0.3s-0.3,0-0.3-0.1c-0.5-0.7-1.2-1.2-2.1-1.6c-0.9-0.4-1.8-0.5-2.8-0.5c-1.3,0-2.4,0.3-3.4,0.8
		c-1,0.5-1.8,1.3-2.4,2.2c-0.6,1-0.9,2.1-0.9,3.3c0,1.2,0.3,2.4,0.9,3.3c0.6,1,1.4,1.7,2.4,2.3c1,0.5,2.2,0.8,3.4,0.8
		c1,0,1.9-0.2,2.7-0.5c0.8-0.3,1.5-0.8,2.1-1.5c0.1-0.1,0.2-0.1,0.3-0.1c0.1,0,0.2,0.2,0.2,0.3v1.1c0,1.6-0.4,2.9-1.2,3.7
		c-0.8,0.8-2.1,1.2-3.8,1.2c-1,0-2-0.2-3-0.5c-0.8-0.3-1.6-0.7-2.2-1.1L283.3,124.9z M289.4,119.4c-1,0-1.8-0.2-2.6-0.6
		c-0.8-0.4-1.4-1-1.8-1.7c-0.4-0.7-0.7-1.6-0.7-2.5c0-1.4,0.5-2.6,1.4-3.5c0.9-0.9,2.2-1.3,3.6-1.3c1.5,0,2.7,0.4,3.6,1.3
		c0.9,0.9,1.4,2,1.4,3.5c0,0.9-0.2,1.8-0.7,2.5c-0.4,0.7-1,1.3-1.8,1.7C291.2,119.1,290.4,119.4,289.4,119.4 M289.4,110.4
		c-1.3,0-2.4,0.4-3.2,1.2c-0.8,0.8-1.2,1.8-1.2,3c0,0.8,0.2,1.5,0.6,2.2c0.4,0.6,0.9,1.1,1.6,1.5c0.7,0.4,1.4,0.5,2.3,0.5
		c0.8,0,1.6-0.2,2.3-0.5h0c0.7-0.4,1.2-0.9,1.6-1.5c0.4-0.6,0.6-1.4,0.6-2.2c0-1.3-0.4-2.2-1.2-3
		C291.8,110.8,290.7,110.4,289.4,110.4"/>
	<path id="XMLID_202_" class="st1" d="M324.6,115.8h-11.2c0.2,1.2,0.7,2.2,1.6,2.9c0.9,0.7,2,1.1,3.4,1.1c1.6,0,3-0.6,4-1.7l1.4,1.6
		c-0.6,0.7-1.4,1.3-2.3,1.7c-0.9,0.4-2,0.6-3.1,0.6c-1.5,0-2.7-0.3-3.9-0.9c-1.1-0.6-2-1.4-2.6-2.5c-0.6-1.1-0.9-2.3-0.9-3.6
		c0-1.3,0.3-2.5,0.9-3.6c0.6-1.1,1.4-1.9,2.5-2.5c1-0.6,2.2-0.9,3.5-0.9c1.3,0,2.5,0.3,3.5,0.9c1,0.6,1.8,1.4,2.4,2.5
		c0.6,1.1,0.9,2.3,0.9,3.7C324.7,115.2,324.7,115.4,324.6,115.8 M314.9,111.1c-0.8,0.7-1.3,1.7-1.4,2.9h8.8
		c-0.1-1.2-0.6-2.1-1.4-2.8c-0.8-0.7-1.8-1.1-3-1.1C316.7,110,315.7,110.4,314.9,111.1"/>
	<path id="XMLID_196_" class="st1" d="M318.4,122.3c-1.5,0-2.8-0.3-4-0.9c-1.2-0.6-2.1-1.5-2.7-2.6c-0.6-1.1-1-2.4-1-3.8
		c0-1.4,0.3-2.6,0.9-3.8c0.6-1.1,1.5-2,2.6-2.6c1.1-0.6,2.3-0.9,3.7-0.9s2.6,0.3,3.7,0.9c1.1,0.6,1.9,1.5,2.5,2.6
		c0.6,1.1,0.9,2.4,0.9,3.8c0,0.2,0,0.5-0.1,0.8c0,0.2-0.1,0.3-0.3,0.3h-10.8c0.2,1,0.7,1.8,1.4,2.4c0.9,0.7,1.9,1,3.2,1
		c1.6,0,2.8-0.5,3.8-1.6c0.1-0.1,0.1-0.1,0.2-0.1c0.1,0,0.2,0,0.2,0.1l1.4,1.6c0.1,0.1,0.1,0.3,0,0.4c-0.7,0.8-1.5,1.3-2.4,1.7
		C320.6,122.1,319.6,122.3,318.4,122.3 M317.9,108.2c-1.3,0-2.4,0.3-3.4,0.9c-1,0.6-1.8,1.4-2.4,2.4c-0.6,1-0.9,2.2-0.9,3.5
		c0,1.3,0.3,2.5,0.9,3.5c0.6,1,1.4,1.8,2.5,2.4c1.1,0.6,2.3,0.9,3.7,0.9c1.1,0,2.1-0.2,3-0.5c0.8-0.3,1.5-0.8,2-1.4l-1-1.2
		c-1,1-2.4,1.5-4,1.5c-1.4,0-2.6-0.4-3.6-1.2c-1-0.8-1.5-1.8-1.7-3.1c0-0.1,0-0.2,0.1-0.2c0.1-0.1,0.1-0.1,0.2-0.1h10.9
		c0-0.2,0-0.3,0-0.5c0-1.3-0.3-2.5-0.8-3.5c-0.5-1-1.3-1.8-2.3-2.4C320.3,108.5,319.1,108.2,317.9,108.2 M322.3,114.3h-8.8
		c-0.1,0-0.2,0-0.2-0.1c-0.1-0.1-0.1-0.1-0.1-0.2c0.1-1.2,0.7-2.3,1.5-3c0.9-0.8,1.9-1.2,3.2-1.2c1.3,0,2.3,0.4,3.2,1.2
		c0.9,0.8,1.4,1.8,1.5,3c0,0.1,0,0.2-0.1,0.2C322.5,114.2,322.4,114.3,322.3,114.3 M313.8,113.7h8.1c-0.2-0.9-0.6-1.7-1.3-2.3
		c-0.8-0.7-1.7-1-2.8-1c-1.1,0-2.1,0.3-2.8,1C314.4,111.9,314,112.7,313.8,113.7 M314.9,111.1L314.9,111.1L314.9,111.1z"/>
</g>
</svg>
